<svg width="78" height="70" viewBox="0 0 78 70" fill="none" xmlns="http://www.w3.org/2000/svg">
<path fill-rule="evenodd" clip-rule="evenodd" d="M29.6361 1.37252C17.7801 3.94552 8.48009 11.4625 3.07809 22.8385C0.378092 28.5255 -0.00690758 30.4015 9.24244e-05 37.8385C0.00809242 45.3635 0.332093 46.8815 2.82409 51.0705C7.67309 59.2215 13.6461 63.1295 23.1881 64.3955C27.5601 64.9755 28.5351 64.7735 30.4111 62.8975C32.0721 61.2365 32.5081 59.7685 32.2751 56.6285L31.9701 52.5275L26.4681 52.3685C14.1111 52.0115 8.73009 41.9195 13.8081 28.6225C15.8201 23.3555 22.4561 16.7065 28.0251 14.3805C33.1621 12.2335 43.9351 12.4125 49.0351 14.7285C62.0621 20.6455 68.6341 36.6585 62.5081 47.5565C59.7771 52.4165 53.2321 56.8385 48.7701 56.8385C46.5031 56.8385 45.4701 57.3085 45.4701 58.3385C45.4701 60.2015 45.9281 60.2005 52.0381 58.3245C57.7381 56.5755 60.3211 54.6195 63.9021 49.3435C66.0671 46.1525 66.4681 44.4445 66.4601 38.4485C66.4371 21.8285 54.9671 10.5955 38.1051 10.6785C29.3171 10.7225 24.8011 12.5135 18.4141 18.4875C12.5731 23.9505 9.99009 30.0315 9.98009 38.3385C9.96909 48.0275 15.4831 53.7555 25.4101 54.3665C29.4191 54.6135 30.0071 54.9465 30.2741 57.1175C30.7581 61.0465 27.8811 63.1555 23.0481 62.4135C9.37609 60.3145 0.309092 48.4955 1.89409 34.8385C4.25909 14.4625 24.1361 -0.667483 43.8451 2.90652C60.0641 5.84752 71.9511 17.9375 74.7501 34.3385C77.2351 48.8955 67.5891 62.9605 52.7301 66.4485C46.4761 67.9165 41.7701 67.1095 39.3111 64.1465C38.5851 63.2725 37.7521 59.6955 37.4581 56.1975L36.9251 49.8385H41.7291C51.3331 49.8385 56.4701 45.7135 56.4701 38.0025C56.4701 28.7385 49.4921 21.7575 39.5111 21.0355C29.6501 20.3215 22.7141 25.3475 20.6051 34.7335C18.9471 42.1135 21.8391 45.4965 29.0991 44.6665C31.7251 44.3665 32.0171 43.9275 32.5241 39.5185C33.1431 34.1265 34.5741 32.6965 38.9701 33.0775C41.2511 33.2765 42.3301 34.1125 43.4701 36.5665C45.2391 40.3745 46.4701 40.7625 46.4701 37.5125C46.4701 34.3235 42.1581 30.5055 38.5571 30.5055C33.5801 30.5055 30.6301 33.2025 30.2781 38.0735C30.0191 41.6545 29.6001 42.3905 27.6651 42.6655C19.5051 43.8225 21.3901 30.0835 30.0741 25.1045C40.3511 19.2135 52.8851 25.4695 54.2011 37.1485C54.9111 43.4415 52.0611 46.2845 44.0401 47.2865C40.6451 47.7105 37.8471 47.6155 37.2881 47.0565C36.7631 46.5315 36.4771 44.3555 36.6521 42.2205C37.0591 37.2565 39.8191 36.7765 40.2831 41.5885C40.5661 44.5165 40.9161 44.8385 43.8111 44.8385C48.6851 44.8385 51.4701 42.4065 51.4701 38.1495C51.4701 26.1905 35.2951 20.6385 28.0721 30.1195C25.4551 33.5545 24.3201 38.1505 25.9701 38.6285C26.5201 38.7875 27.1281 37.8935 27.3211 36.6415C28.3781 29.7735 35.7311 25.7585 42.3791 28.4185C48.5581 30.8905 51.8691 39.4845 47.5361 41.8035C44.5461 43.4035 42.4701 43.0415 42.4701 40.9205C42.4701 37.3015 41.3021 35.8385 38.4131 35.8385C35.6531 35.8385 35.5611 36.0075 35.2701 41.5885L34.9701 47.3385L30.9701 47.6675C28.7701 47.8485 25.2481 47.4825 23.1421 46.8545C12.5841 43.7025 16.2081 26.0945 28.7301 19.7055C34.4421 16.7915 44.6581 17.3515 49.8461 20.8635C60.3721 27.9885 62.8961 41.3935 55.0631 48.5725C52.0411 51.3415 50.7461 51.8385 46.5441 51.8385C40.9091 51.8385 39.9311 52.7845 40.3591 57.8245C40.7851 62.8535 42.0191 63.8415 47.8421 63.8165C54.0711 63.7895 60.1781 61.1705 64.4761 56.6805C69.8651 51.0525 71.4701 46.8285 71.4701 38.2715C71.4701 31.8285 70.9951 29.6285 68.4521 24.3005C64.7761 16.5985 58.4351 10.7235 50.6171 7.77552C42.6051 4.75452 30.1561 5.36252 22.8101 9.13252C11.7341 14.8175 5.21609 25.2035 5.06009 37.4155C4.98109 43.6245 5.33909 45.0895 7.97909 49.3605C10.0681 52.7405 12.3611 54.9055 15.4791 56.4405C21.5471 59.4285 26.4701 60.2675 26.4701 58.3135C26.4701 57.3295 25.4341 56.8385 23.3561 56.8385C16.7111 56.8385 9.57109 50.4105 7.37309 42.4485C6.21309 38.2475 7.48909 29.6355 9.98809 24.8035C12.5851 19.7815 18.5211 13.8455 23.4071 11.3845C39.9961 3.02652 58.4781 9.17252 66.7661 25.8045C70.1921 32.6795 70.5441 42.8335 67.5581 48.6285C63.6741 56.1625 55.3581 61.8385 48.2021 61.8385C44.1351 61.8385 42.4701 60.3285 42.4701 56.6385C42.4701 53.9705 42.6901 53.8385 47.1581 53.8385C55.8631 53.8385 61.7561 47.5675 61.7561 38.3035C61.7561 29.1795 56.1321 20.6985 47.7521 17.1865C42.8441 15.1305 32.1381 15.4565 27.5381 17.8045C17.7221 22.8115 11.8961 35.9595 15.9871 43.8715C18.1091 47.9755 22.3031 49.8385 29.4201 49.8385H35.4701V56.6515C35.4701 62.7965 35.7391 63.7145 38.2201 66.0225C41.8951 69.4415 45.5641 70.1625 52.3331 68.7945C69.5941 65.3065 80.2721 49.1305 76.6031 32.0245C73.1661 15.9945 60.8011 3.81352 45.0361 0.925517C37.9211 -0.378483 37.6661 -0.370483 29.6361 1.37252Z" fill="#725F4B"/>
</svg>
